<svg width="1220" height="630" viewBox="0 0 1220 630" fill="none" xmlns="http://www.w3.org/2000/svg">
<rect width="1220" height="630" fill="white"/>
<path d="M220.879 215.222C220.879 219.653 220.733 223.997 220.468 228.166C220.204 232.335 219.294 237.816 217.798 244.638C216.271 251.43 214.276 257.698 211.81 263.412C209.345 269.097 205.676 275.103 200.863 281.341C196.049 287.609 190.326 292.828 183.693 296.997C177.089 301.166 168.666 304.635 158.481 307.433C148.268 310.203 136.85 311.602 124.171 311.602H23.501C16.0754 311.602 10.0294 305.509 10.0294 298.017V259.739H10.0881C25.6435 259.739 45.2199 259.739 65.7356 259.71H126.901C134.737 259.71 140.637 255.803 143.572 248.748C146.477 241.81 145.098 234.959 139.668 229.449C120.444 209.975 101.014 190.442 82.9053 172.192C78.7376 167.994 73.5426 166.274 67.8781 167.207C60.9809 168.373 56.1968 172.425 53.9956 178.956C51.7356 185.748 53.2325 192.045 58.31 197.205C65.7356 204.727 73.2198 212.248 81.0269 220.061L85.2826 224.376H10.0294L10 128.637C10.0293 121.145 16.0461 115.081 23.4423 115.081H124.113C151.408 115.081 174.36 124.06 192.938 141.989C211.575 159.948 220.879 184.349 220.879 215.222Z" fill="#3C67B1"/>
<path d="M220.879 418.627C220.879 423.059 220.733 427.403 220.468 431.571C220.204 435.74 219.294 441.221 217.798 448.043C216.271 454.836 214.276 461.104 211.81 466.818C209.345 472.502 205.676 478.508 200.863 484.747C196.049 491.015 190.326 496.233 183.693 500.402C177.089 504.571 168.666 508.04 158.481 510.839C148.268 513.608 136.85 515.008 124.171 515.008H23.501C16.0754 515.008 10.0294 508.915 10.0294 501.422V482.006L10 332.072C10.0293 324.579 16.0461 318.516 23.4423 318.516H124.113C151.408 318.516 174.36 327.495 192.938 345.424C200.921 353.15 207.232 362.041 211.781 372.128C197.605 372.128 180.054 372.128 161.504 372.157H94.5866C86.7501 372.157 80.8508 376.035 77.8864 383.119C75.0101 390.057 76.3896 396.938 81.79 402.418C100.867 421.747 120.326 441.367 138.523 459.675C141.957 463.144 146.066 464.923 150.557 464.923C151.555 464.923 152.523 464.835 153.551 464.66C160.448 463.494 165.232 459.442 167.433 452.882C169.693 446.119 168.196 439.822 163.119 434.662C155.693 427.111 148.209 419.619 140.372 411.776L136.146 407.491H220.439C220.733 411.077 220.879 414.808 220.879 418.627Z" fill="#3C67B1"/>
<path d="M270.015 115H342.274C383.188 115 403.469 135.728 403.469 163.744C403.469 186.6 388.912 199.457 370.48 203.742V205.579C390.584 206.599 410.836 223.304 410.836 251.728C410.836 280.998 389.645 302.95 346.413 302.95H270.015V115ZM338.019 194.909C355.805 194.909 369.276 184.618 369.276 168.117C369.276 153.628 358.857 143.074 338.782 143.074H304.208V194.938H338.019V194.909ZM340.983 274.497C365.784 274.497 376.086 264.031 376.086 249.075C376.086 232.283 362.996 219.427 341.893 219.427H304.208V274.497H340.983Z" fill="#F26727"/>
<path d="M462.08 302.921H428.709V115H461.347V185.93H462.99C469.535 169.954 483.359 160.129 505.107 160.129C534.516 160.129 553.858 179.137 553.858 213.159V302.921H520.487V218.319C520.487 199.311 510.156 188.204 492.663 188.204C474.789 188.204 462.051 199.952 462.051 220.33V302.921H462.08Z" fill="#F26727"/>
<path d="M570.762 263.395C570.762 231.648 597.031 223.485 624.502 220.54C649.479 217.887 659.517 217.421 659.517 207.888V207.334C659.517 193.486 651.035 185.586 635.567 185.586C619.249 185.586 609.857 193.836 606.54 203.486L575.4 199.084C582.767 173.4 605.63 160.164 635.391 160.164C662.393 160.164 692.917 171.359 692.917 208.617V302.956H660.837V283.598H659.722C653.647 295.435 640.381 305.813 618.163 305.813C591.131 305.784 570.762 291.091 570.762 263.395ZM659.605 252.375V235.758C655.261 239.257 637.768 241.443 629.022 242.638C614.083 244.737 602.93 250.072 602.93 262.841C602.93 275.057 612.88 281.383 626.792 281.383C646.896 281.383 659.605 268.06 659.605 252.375Z" fill="#F26727"/>
<path d="M716.134 161.961H748.477V185.458H749.945C755.11 169.132 768.67 159.949 784.871 159.949C788.569 159.949 793.823 160.328 796.846 160.853V191.435C793.999 190.531 786.984 189.511 781.349 189.511C763.006 189.511 749.446 202.163 749.446 220.063V302.945H716.075V161.961H716.134Z" fill="#F26727"/>
<path d="M799.372 263.395C799.372 231.648 825.641 223.485 853.112 220.54C878.089 217.887 888.127 217.421 888.127 207.888V207.334C888.127 193.486 879.644 185.586 864.177 185.586C847.858 185.586 838.466 193.836 835.15 203.486L804.01 199.084C811.376 173.4 834.24 160.164 864.001 160.164C891.003 160.164 921.527 171.359 921.527 208.617V302.956H889.418V283.598H888.303C882.227 295.435 868.961 305.813 846.743 305.813C819.741 305.784 799.372 291.091 799.372 263.395ZM888.215 252.375V235.758C883.871 239.257 866.378 241.443 857.632 242.638C842.693 244.737 831.54 250.072 831.54 262.841C831.54 275.057 841.489 281.383 855.401 281.383C875.506 281.383 888.215 268.06 888.215 252.375Z" fill="#F26727"/>
<path d="M1015.44 187.673H987.53V260.526C987.53 273.937 994.251 276.852 1002.65 276.852C1006.78 276.852 1010.57 276.036 1012.42 275.569L1018.05 301.545C1014.47 302.74 1007.93 304.577 998.419 304.839C973.354 305.568 953.983 292.536 954.189 266.007V187.673H934.084V161.989H954.189V128.2H987.56V161.96H1015.47V187.673H1015.44Z" fill="#F26727"/>
<path d="M397.3 391.104C393.514 369.677 376.403 357.374 354.567 357.374C325.158 357.374 304.437 379.851 304.437 420.228C304.437 461.305 325.334 483.083 354.479 483.083C375.992 483.083 393.191 471.276 397.3 450.314L430.143 450.489C425.124 484.657 396.801 512.207 354.039 512.207C306.638 512.207 271.712 478.039 271.712 420.258C271.712 362.389 307.079 328.309 354.039 328.309C393.896 328.309 424.625 351.398 430.143 391.163H397.3V391.104Z" fill="#F26727"/>
<path d="M442.967 443.115C442.967 401.513 468.061 373.701 507.566 373.701C547.072 373.701 572.166 401.513 572.166 443.115C572.166 484.629 547.072 512.353 507.566 512.353C468.061 512.353 442.967 484.629 442.967 443.115ZM539.939 443.027C539.939 418.451 529.227 398.802 507.713 398.802C485.848 398.802 475.135 418.48 475.135 443.027C475.135 467.574 485.848 486.99 507.713 486.99C529.227 486.99 539.939 467.574 539.939 443.027Z" fill="#F26727"/>
<path d="M620.918 509.701H589.132V375.45H619.509V398.277H621.094C627.228 383.322 641.111 373.701 661.303 373.701C689.127 373.701 707.559 392.068 707.471 424.224V509.701H675.685V429.121C675.685 411.192 665.853 400.464 649.446 400.464C632.687 400.464 620.918 411.659 620.918 431.045V509.701Z" fill="#F26727"/>
<path d="M761.708 509.701H729.922V375.45H760.299V398.277H761.884C768.018 383.322 781.901 373.701 802.093 373.701C829.917 373.701 848.349 392.068 848.261 424.224V509.701H816.475V429.121C816.475 411.192 806.643 400.464 790.236 400.464C773.477 400.464 761.708 411.659 761.708 431.045V509.701Z" fill="#F26727"/>
<path d="M864.964 443.377C864.964 401.951 890.146 373.701 928.77 373.701C961.965 373.701 990.405 394.429 990.405 441.541V451.249H896.485C896.75 474.25 910.368 487.69 930.884 487.69C944.59 487.69 955.097 481.743 959.412 470.373L989.085 473.696C983.479 497.048 961.877 512.324 930.443 512.324C889.823 512.324 864.964 485.503 864.964 443.377ZM959.94 429.908C959.764 411.629 947.466 398.365 929.211 398.365C910.251 398.365 897.513 412.796 896.573 429.908H959.94Z" fill="#F26727"/>
<path d="M1001.59 443.115C1001.59 402.125 1026.51 373.701 1066.01 373.701C1098.91 373.701 1121.75 392.855 1123.95 421.95H1093.57C1091.11 409.006 1081.71 399.21 1066.45 399.21C1046.88 399.21 1033.79 415.478 1033.79 442.561C1033.79 470.023 1046.61 486.524 1066.45 486.524C1080.39 486.524 1090.84 478.215 1093.57 463.784H1123.95C1121.66 492.267 1100.09 512.295 1066.19 512.295C1025.89 512.324 1001.59 483.754 1001.59 443.115Z" fill="#F26727"/>
<path d="M1207.54 399.903H1180.95V469.316C1180.95 482.085 1187.34 484.884 1195.36 484.884C1199.32 484.884 1202.9 484.097 1204.66 483.659L1210 508.41C1206.57 509.547 1200.35 511.297 1191.31 511.559C1167.44 512.259 1148.98 499.839 1149.16 474.593V399.932H1130.02V375.443H1149.16V343.287H1180.95V375.443H1207.54V399.903Z" fill="#F26727"/>
</svg>